<?xml version="1.0" encoding="utf-8"?>
<svg width="2500" height="2500" viewBox="93.74 47.396 738.888 239.526" xmlns="http://www.w3.org/2000/svg" xmlns:bx="https://boxy-svg.com">
  <defs>
    <style bx:fonts="ABeeZee">@import url(https://fonts.googleapis.com/css2?family=ABeeZee%3Aital%2Cwght%400%2C400%3B1%2C400&amp;display=swap);</style>
  </defs>
  <g fill="#3a73b8" style="" transform="matrix(0.632159, 0, 0, 0.632159, 132.085403, 55.561031)">
    <path d="M160.51 10.68c32.65-2.49 65.97 5.14 94.31 21.53 22.67 13.07 42.27 31.51 56.459 53.52 17.621 26.91 26.941 59.12 26.67 91.28-.209 33.61-10.909 67.1-30.459 94.471-19.83 28.069-48.66 49.689-81.2 60.749-28.899 10-60.57 11.57-90.39 4.891-31.27-6.97-60.32-23.42-82.54-46.49C29.81 266.24 13.87 234.49 9 200.9c-4.79-29.92-.83-61.13 10.86-89.05C30.71 85.88 48.38 62.86 70.5 45.49c25.64-20.22 57.42-32.55 90.01-34.81m-.04 7.94c-19.4 1.39-38.48 6.58-56.021 14.97-28.22 13.6-52.35 35.7-68 62.86C13.14 135.63 8.64 185.21 23.92 228.1c9.8 27.891 27.7 52.771 50.84 71.13 26.89 21.33 60.9 33.62 95.25 33.91 25.08.551 50.28-5.149 72.669-16.439 28.53-14.12 52.5-37.21 67.82-65.091 15.311-27.68 22.029-60.109 18.62-91.579-4.53-51.07-36.431-98.39-81.45-122.65C221.27 22.83 190.529 16.17 160.47 18.62z"/>
    <path d="M132.62 33.59c27.5-7.68 57.26-7.35 84.46 1.43 1.18.37 2.09 1.24 3.02 2.02-4.49-.33-8.609-2.36-13.02-3.12-11.12-2.22-22.641-3.32-33.91-1.64-7.06 1.27-14.47 4-18.95 9.9-3.37 4.38-3.73 11.26.18 15.42 4.34 4.59 12.04 4.34 16.85.63 5.68-4.17 11.189-9.14 18.279-10.69 14.41-3.57 29.521-.7 43.48 3.45 16.76 4.57 32.61 12.84 45.471 24.57 21.43 18.93 34.31 46.11 39.199 73.98 4.26 23.78 2.98 48.63-4.4 71.67-.26 1.08-.949 1.71-2.069 1.88 4.28-15.689 7.46-32.34 4.261-48.54-1.681-7.82-5.531-16.64-13.761-19.31-6.3-2.23-13.97 2.1-14.479 8.95-1.201 7.33 4.789 12.61 8.52 18.1 8.01 11.5 7.02 26.41 5.061 39.601-3.681 17.859-9.641 35.64-20.461 50.52-16.699 23.97-43.299 39.79-71.41 46.55-24.43 5.84-50.319 5.8-74.709-.21-3.21-.96-6.86-1.39-9.35-3.85 4.65-.011 8.96 2.01 13.51 2.729 12.43 2.26 25.42 3.66 37.84.55 5.629-1.55 11.33-4.229 14.869-9.05 3.28-4.5 3.211-11.39-.82-15.41-3.489-3.68-9.299-4.439-13.76-2.12-5.299 2.87-9.35 7.591-14.759 10.301-10.91 5.3-23.57 4.52-35.21 2.56-19.3-3.79-38.37-10.79-53.93-23.101-20.662-15.88-34.972-39.04-41.982-63.98-7.42-26.11-7.47-54.17-.7-80.42 1.17-2.72.72-7.01 3.82-8.3-3.96 15-7.09 30.72-4.68 46.26 1.22 6.9 3.64 14.21 9.35 18.689 3.96 3.271 10.15 4.471 14.53 1.33 4.67-2.729 6.21-9.209 4.04-14-2.28-5.399-6.91-9.33-9.56-14.529-5.73-10.47-5.1-22.97-3.58-34.43 3.2-18.36 9.43-36.5 20.26-51.82 16.08-23.3 41.39-39.25 68.5-46.57m3.72 55.75c-8.96 4.83-15.12 13.46-19.63 22.36-4.79 9.15-6.77 19.37-7.71 29.55-4.42-.59-7.98-4.02-9-8.32-2.06-6.29.12-12.74 1.24-18.95.5-1.8-.87-3.27-1.6-4.75-3.76-.23-7.6 1.62-9.31 5.07-5.12 9.57-4.67 22.48 2.41 30.97 4.061 5.14 10.47 7.68 16.84 8.36 2.15 6.62 6.35 13.08 13.1 15.68 8.26 3.33 17.33-.16 24.51-4.5-.26 2.66-.4 5.39-1.33 7.93-2.52 2.03-5.59 3.22-8.41 4.79-13.85 7.3-27.96 14.649-39.6 25.28-8.48 7.959-15.15 18.549-16.43 30.279-.62 9.221 3.05 19.34 11.13 24.41 8.439 5.59 19.57 5.28 28.77 1.811 11.6-4.42 20.25-14.261 25.97-25 8.46-15.201 9.91-32.931 11.14-49.94.34-1.99-.08-4.81 2.26-5.67 13.82-7.771 27.25-16.23 40.089-25.54 1.521 1.87 3.021 3.75 4.451 5.68-6.61 3.94-13.201 8.19-18.19 14.16-18.66 20.41-18.97 55.439.59 75.359 10 10.551 25.37 15.061 39.601 12.951 13.08-1.86 24.979-10.091 31.58-21.49 8.799-14.521 7.359-34.83-4.08-47.5-10.701-11.82-31.531-11.59-41.99.41-8.23 8.66-8.5 23.97.09 32.449 3.48 3.471 9.54 5.57 13.91 2.58 2.82-2.029 2.55-6.369.279-8.72-2.939-3.55-6.42-7.66-5.539-12.62.879-6.45 8.09-10.4 14.16-9.029 5.199.81 9.35 4.869 11.279 9.629 4.551 10.83 1.971 24.25-6.199 32.681-8.66 9.03-23.721 10.45-34.17 3.76-9.281-5.71-14.561-16.3-16.191-26.81-1.709-12.67.721-26.34 8.58-36.67 5.061-6.541 12.121-11.91 20.24-13.851 6.82.52 13.891 1.75 20.57-.43 3.141-1.07 6.199-4.59 4.6-8.03-1.729-3.53-5.979-4.59-9.52-5.33-5.29-1.05-10.551.36-15.721 1.35-3.609-1.24-5.52-5.03-6.859-8.37 10.04-7.5 19.96-15.65 26.779-26.32 3.961-6.41 6.541-14.28 4.681-21.81-1.47-4.99-5.56-9.23-10.78-10.18-8.699-2.19-17.6 2.2-23.51 8.43-9.5 10.31-14.32 24.6-13.88 38.54-.13 2.88.989 5.9.17 8.67-7.12 5.74-15.08 10.36-22.75 15.32-4.41 2.561-8.61 5.51-13.29 7.58.08-4.44.31-8.94 1.58-13.22 3.37-4.61 7.61-8.62 10.29-13.74 1.96-3.53 3.81-8 1.77-11.9-1.87-2.89-6.01-2.61-8.72-1.17-5.78 2.9-8.95 9.02-11.28 14.76-1.6 3.67-1.78 8.22-5.2 10.82-4.76 4.16-10.5 8.34-17.12 8.1-3.78.02-6.3-3.54-7.1-6.88 10.46-4.061 19.19-11.641 26.27-20.2 6.55-8.42 11.76-18.36 12.64-29.14.49-5.43-1.45-11.58-6.41-14.42-6.2-3.379-13.97-2.419-20.05.781z"/>
    <path d="M142.33 99.3c2.43-1.84 6.44-1.06 7.59 1.91.89 3.66-.46 7.37-2.02 10.64-4.43 9.04-11.04 16.88-18.6 23.46-1.87 1.71-4.05 3.04-6.36 4.06.31-8.04 3.07-15.79 6.49-23 3.18-6.39 6.86-12.96 12.9-17.07zM220.5 102.44c2.15-2.48 5.85-4.96 9.13-3.27 3.601 2.13 1.72 6.9.3 9.82-4.949 9.13-12.289 16.83-20.25 23.4-.119-10.83 3.759-21.73 10.82-29.95zM113.45 207.49c9.33-7.85 19.68-14.59 30.76-19.71-1.17 12.25-4.04 24.39-8.67 35.79-3.97 9.18-9.86 18.63-19.62 22.39-5.06 1.899-11.66 3.09-16.04-.91-4.15-3.68-3.87-9.92-2.66-14.86 2.52-9.21 9.29-16.47 16.23-22.7z"/>
  </g>
  <text style="fill: rgb(51, 51, 51); font-family: Arial, sans-serif; font-size: 50px; white-space: pre;" transform="matrix(1, 0, 0, 1, -46.622208, 54.392574)"><tspan style="font-size: 109px; font-weight: 700;" x="427.452" y="113.657">Proficy</tspan><tspan> </tspan><tspan x="427.4519958496094" dy="1em">​</tspan></text>
  <text style="fill: rgb(51, 51, 51); font-family: ABeeZee; font-size: 61px; white-space: pre;" x="386.011" y="243.163">HMI / SCADA</text>
</svg>